<?xml version="1.0" encoding="UTF-8"?>
<svg width="96px" height="24px" viewBox="0 0 96 24" version="1.1" xmlns="http://www.w3.org/2000/svg" xmlns:xlink="http://www.w3.org/1999/xlink">
    <defs></defs>
    <g id="Branding" stroke="none" stroke-width="1" fill="none" fill-rule="evenodd">
        <g id="Brand/Logo">
            <g id="logo">
                <path d="M29.43465,23.95365 C27.49365,23.95365 25.7154,23.51265 24.1479,22.6419 C22.5804,21.77115 21.33015,20.5584 20.4324,19.0359 C19.53315,17.51415 19.0779,15.7854 19.0779,13.89765 C19.0779,12.0279 19.5474,10.31265 20.47365,8.79915 C21.39915,7.28715 22.69065,6.0834 24.31365,5.2209 C25.93515,4.36065 27.7689,3.92415 29.76315,3.92415 C31.1904,3.92415 32.6379,4.18815 34.0644,4.71015 C35.4924,5.2314 36.71715,5.94165 37.70715,6.8214 L37.77615,6.88215 L34.8069,10.5354 L34.7319,10.4649 C34.05015,9.8184 33.25365,9.3009 32.3664,8.92365 C31.4799,8.5479 30.59415,8.35665 29.7354,8.35665 C28.7364,8.35665 27.82365,8.6004 27.02115,9.0819 C26.21865,9.5634 25.57665,10.2324 25.11315,11.0709 C24.6489,11.9094 24.4134,12.86115 24.4134,13.89765 C24.4134,14.95365 24.6489,15.91815 25.11315,16.76565 C25.57665,17.61315 26.22765,18.2859 27.04815,18.76815 C27.8679,19.24965 28.7904,19.4934 29.79015,19.4934 C30.7239,19.4934 31.8054,19.19265 33.0054,18.5994 L33.0054,16.73565 L29.8899,16.73565 L29.8899,12.8379 L37.51065,12.8379 L37.5204,21.38865 L37.4814,21.4179 C36.45615,22.1679 35.18115,22.78515 33.6909,23.2509 C32.2014,23.71815 30.76965,23.95365 29.43465,23.95365 Z M40.776,23.598 L40.776,3.1035 L45.8385,3.1035 L45.8385,23.598 L40.776,23.598 Z M56.469075,23.762625 C54.855825,23.762625 53.413575,23.440875 52.184325,22.807125 C50.950575,22.172625 49.984575,21.267375 49.312575,20.116875 C48.641325,18.967125 48.300825,17.611875 48.300825,16.086375 C48.300825,14.580375 48.641325,13.234125 49.312575,12.084375 C49.984575,10.933125 50.951325,10.027875 52.184325,9.393375 C53.413575,8.760375 54.855825,8.438625 56.469075,8.438625 C58.082325,8.438625 59.523825,8.760375 60.753825,9.393375 C61.986825,10.027875 62.957325,10.933125 63.638325,12.084375 C64.319325,13.234875 64.664325,14.581125 64.664325,16.086375 C64.664325,17.611125 64.319325,18.967125 63.638325,20.117625 C62.957325,21.267375 61.986825,22.172625 60.753825,22.807125 C59.523825,23.440875 58.082325,23.762625 56.469075,23.762625 Z M72.312075,23.8167 C71.049075,23.8167 69.824325,23.63595 68.671575,23.27895 C67.515075,22.9212 66.474075,22.38645 65.576325,21.6897 L65.514825,21.64245 L67.130325,18.3252 L67.221825,18.38895 C68.049825,18.96495 68.930325,19.41645 69.839325,19.73145 C70.745325,20.0457 71.613825,20.20545 72.421575,20.20545 C72.877575,20.20545 73.243575,20.13045 73.510575,19.9842 C73.762575,19.8462 73.885575,19.6542 73.885575,19.3977 C73.885575,19.06995 73.701075,18.82095 73.323075,18.6357 C72.920325,18.43845 72.276825,18.21945 71.411325,17.98545 C70.368825,17.67495 69.499575,17.36445 68.825325,17.0637 C68.139825,16.75845 67.533825,16.29345 67.025325,15.68295 C66.511575,15.06645 66.250575,14.2542 66.250575,13.2687 C66.250575,11.7477 66.834075,10.5387 67.985325,9.6762 C69.128325,8.81895 70.620825,8.38395 72.421575,8.38395 C73.499325,8.38395 74.580825,8.53245 75.634575,8.8257 C76.686825,9.1182 77.694075,9.55395 78.627825,10.1217 L78.703575,10.16895 L76.977075,13.5072 L76.891575,13.46295 C74.998575,12.47145 73.429575,11.96895 72.229575,11.96895 C71.829825,11.96895 71.506575,12.04245 71.266575,12.1872 C71.040075,12.3252 70.929825,12.5262 70.929825,12.80295 C70.929825,13.0947 71.109075,13.32645 71.478825,13.51095 C71.872575,13.70745 72.510825,13.92645 73.376325,14.1612 C74.437575,14.47245 75.329325,14.7822 76.029825,15.0822 C76.742325,15.38745 77.366325,15.85695 77.885325,16.4772 C78.408075,17.10345 78.673575,17.9292 78.673575,18.93195 C78.673575,20.4537 78.075825,21.6627 76.896825,22.52595 C75.726825,23.38245 74.184075,23.8167 72.312075,23.8167 Z M87.826575,23.7624 C86.231325,23.7624 84.816825,23.44515 83.622825,22.8204 C82.425825,22.1949 81.496575,21.29865 80.860575,20.1564 C80.226825,19.01565 79.905075,17.67465 79.905075,16.16865 C79.905075,14.6454 80.231325,13.2819 80.874075,12.11415 C81.518325,10.94415 82.443825,10.0299 83.622075,9.39465 C84.797325,8.76015 86.175075,8.43915 87.717075,8.43915 C90.141075,8.43915 92.034825,9.1674 93.342075,10.6044 C94.647825,12.0384 95.310075,14.03115 95.310075,16.5249 C95.310075,16.9059 95.300325,17.20365 95.282325,17.4084 L95.274825,17.49615 L85.026825,17.49615 C85.262325,18.25215 85.652325,18.84315 86.187825,19.25265 C86.751825,19.6854 87.450075,19.9044 88.264575,19.9044 C88.887075,19.9044 89.495325,19.77765 90.073575,19.52865 C90.652575,19.27965 91.190325,18.9084 91.671825,18.4269 L91.739325,18.3594 L94.416075,21.0354 L94.356075,21.1029 C93.583575,21.96765 92.637825,22.6344 91.543575,23.0844 C90.452325,23.53365 89.201325,23.7624 87.826575,23.7624 Z M56.469075,12.570375 C55.554075,12.570375 54.804825,12.899625 54.243075,13.549875 C53.677575,14.203875 53.391075,15.076125 53.391075,16.141875 C53.391075,17.225625 53.677575,18.106875 54.243075,18.760875 C54.804825,19.410375 55.553325,19.740375 56.469075,19.740375 C57.402075,19.740375 58.160325,19.410375 58.722075,18.760875 C59.287575,18.106875 59.574825,17.225625 59.574825,16.141875 C59.574825,15.076875 59.283075,14.204625 58.709325,13.550625 C58.137825,12.899625 57.384075,12.570375 56.469075,12.570375 Z M84.906075,14.70465 L90.384075,14.70465 C90.365325,13.9209 90.122325,13.28115 89.659575,12.80115 C89.178075,12.30315 88.533825,12.05115 87.744075,12.05115 C87.008325,12.05115 86.382075,12.2994 85.882575,12.78915 C85.401825,13.26165 85.074075,13.90665 84.906075,14.70465 Z" id="Glose" fill="#081244"></path>
                <g id="icon">
                    <path d="M9.17625,23.582325 C9.17625,23.813325 7.7745,24.000075 6.045,24.000075 C4.3155,24.000075 2.91375,23.813325 2.91375,23.582325 C2.91375,23.351325 4.3155,23.164575 6.045,23.164575 C7.7745,23.164575 9.17625,23.351325 9.17625,23.582325" id="Fill-8" fill="#081244" opacity="0.2"></path>
                    <path d="M10.715775,2.919225 C7.447275,-0.167775 1.427775,0.139725 1.172775,0.154725 C0.923775,0.168975 0.707025,0.329475 0.621525,0.563475 C0.601275,0.617475 0.139275,1.894725 0.139275,3.570225 C0.139275,4.409475 0.361275,5.034225 0.725025,5.546475 C0.581025,6.171225 0.248025,7.700475 0.248025,8.510475 C0.248025,9.359475 0.567525,9.981225 1.009275,10.472475 C0.931275,10.935225 0.805275,11.809725 0.805275,12.603225 C0.805275,13.660725 1.379775,14.349225 2.106525,15.222225 C2.525775,15.723975 3.000525,16.293225 3.524025,17.087475 C4.620525,18.750975 5.548275,20.628225 5.557275,20.647725 C5.945025,21.469725 6.263025,21.150975 6.596775,20.775225 C6.703275,20.655975 8.146275,18.936225 9.655275,16.473975 C11.708775,13.122225 12.749775,10.224225 12.749775,7.861725 C12.749775,5.856225 12.065775,4.193475 10.715775,2.919225" id="Fill-9" fill="#FFFFFF"></path>
                    <path d="M5.52255,5.082075 C3.45855,3.787575 1.94505,2.021325 1.12305,0.161325 C0.8958,0.192825 0.70155,0.345825 0.6213,0.564075 C0.60105,0.617325 0.13905,1.894575 0.13905,3.570075 C0.13905,4.410075 0.3618,5.034825 0.7248,5.546325 C0.5808,6.171075 0.24855,7.700325 0.24855,8.510325 C0.24855,9.359325 0.5673,9.981075 1.00905,10.472325 C0.93105,10.935825 0.80505,11.810325 0.80505,12.603075 C0.80505,13.660575 1.37955,14.349075 2.10705,15.222825 C2.52555,15.723825 3.0003,16.293075 3.5238,17.087325 C4.6203,18.751575 5.5488,20.628825 5.55705,20.647575 C5.9448,21.470325 6.2628,21.150825 6.5973,20.775075 C6.70305,20.656575 8.1468,18.936825 9.65505,16.473825 C11.70855,13.122825 12.74955,10.224075 12.74955,7.861575 C12.74955,7.506825 12.72705,7.164075 12.6843,6.831075 C10.4523,7.116075 7.86705,6.551325 5.52255,5.082075" id="Fill-10" fill="#E6E7EC"></path>
                    <polygon id="Fill-11" fill="#C4C7D2" points="5.8851 14.33985 1.77585 10.4886 1.4631 12.1746"></polygon>
                    <path d="M7.3353,10.488825 C7.3353,10.488825 6.9078,9.188325 4.8933,7.830075 C3.7248,7.041825 1.3353,5.402325 1.3353,5.402325 L1.04505,7.350825 L7.3353,10.488825 Z" id="Fill-12" fill="#C4C7D2"></path>
                    <path d="M2.253375,11.644575 C2.215875,12.003825 2.196375,12.324825 2.196375,12.603075 C2.196375,13.134075 2.497125,13.516575 3.175875,14.331075 C3.597375,14.837325 4.120125,15.463575 4.685625,16.321575 C5.307375,17.264325 5.866125,18.252075 6.253125,18.969075 C10.857375,12.946575 11.358375,9.200325 11.358375,7.861575 C11.358375,6.254325 10.820625,4.932075 9.760125,3.930825 C7.415625,1.717575 3.197625,1.534575 1.785375,1.533825 C1.663875,2.019825 1.531125,2.740575 1.531125,3.570075 C1.531125,4.749075 2.063625,5.142825 3.602625,6.107325 C3.961875,6.332325 4.367625,6.586575 4.790625,6.878325 C6.110625,7.788075 6.764625,8.253075 7.398375,8.770575 L7.440375,8.805075 C7.801875,9.098325 8.252625,9.465075 7.741125,10.377825 C7.666875,10.510575 7.569375,10.590075 7.450875,10.611825 C7.311375,10.638075 7.161375,10.582575 6.992625,10.443075 L6.859875,10.332825 C6.432375,9.975825 5.542875,9.234825 3.922125,8.138325 C3.576375,7.905075 3.226875,7.678575 2.790375,7.404825 C2.485875,7.214325 2.173875,7.017825 1.877625,6.811575 C1.723875,7.592325 1.639875,8.190825 1.639875,8.510325 C1.639875,9.330075 2.143875,9.747825 3.212625,10.443075 L3.254625,10.470825 C3.391125,10.559325 3.525375,10.646325 3.654375,10.735575 C5.101125,11.737575 5.784375,12.381075 6.172875,12.778575 C6.691125,13.308075 6.778125,13.607325 6.271875,14.337075 C6.205125,14.433825 6.111375,14.490825 6.001125,14.502075 C5.894625,14.513325 5.723625,14.484075 5.509875,14.283825 C5.431125,14.209575 5.346375,14.125575 5.250375,14.031825 C4.793625,13.581825 4.102875,12.901575 2.786625,11.997075 C2.656125,11.907825 2.520375,11.818575 2.383125,11.729325 C2.339625,11.701575 2.296125,11.673075 2.253375,11.644575 M6.058125,21.302325 C6.038625,21.302325 6.019125,21.300825 5.998875,21.298575 C5.787375,21.267825 5.607375,21.079575 5.431125,20.706825 C5.423625,20.690325 4.495125,18.814575 3.407625,17.163825 C2.889375,16.377825 2.418375,15.813075 2.002875,15.314325 C1.254375,14.417325 0.665625,13.711575 0.665625,12.603075 C0.665625,11.833575 0.783375,10.989075 0.861375,10.515075 C0.355125,9.932325 0.109125,9.275325 0.109125,8.510325 C0.109125,7.711575 0.424875,6.234825 0.575625,5.574825 C0.188625,5.007075 0.000375,4.350075 0.000375,3.570075 C0.000375,1.869075 0.470625,0.570075 0.490875,0.516075 C0.595875,0.229575 0.860625,0.033825 1.165125,0.015825 C1.421625,0.000825 7.491375,-0.316425 10.811625,2.817825 C12.190125,4.119825 12.889125,5.816325 12.889125,7.861575 C12.889125,10.251075 11.841375,13.173075 9.773625,16.546575 C8.190375,19.132575 6.714375,20.852325 6.700875,20.868075 C6.526875,21.063075 6.313875,21.302325 6.058125,21.302325" id="Fill-13" fill="#081244"></path>
                </g>
            </g>
        </g>
    </g>
</svg>
